<svg width="15" height="14" viewBox="0 0 15 14" fill="none" xmlns="http://www.w3.org/2000/svg">
<path id="Vector" d="M2.25829 11.3308C1.90683 11.3413 1.57396 11.2118 1.33288 10.9707C1.09181 10.7296 0.96227 10.3968 0.972751 10.0453L1.22557 1.61011C1.23616 1.25865 1.3859 0.917408 1.64188 0.661436C1.89785 0.405464 2.23909 0.255719 2.59055 0.245132L11.0257 -0.00768872C11.373 -0.0120639 11.7 0.120289 11.9362 0.360865C12.1724 0.601441 12.2989 0.93099 12.2884 1.27853C12.278 1.62608 12.1315 1.96381 11.8805 2.21899C11.6294 2.47417 11.294 2.62638 10.9463 2.64283L5.78904 2.87794L14.426 11.5149C14.6671 11.756 14.7966 12.0889 14.7861 12.4405C14.7756 12.792 14.6258 13.1333 14.3698 13.3894C14.1138 13.6454 13.7725 13.7951 13.4209 13.8057C13.0694 13.8162 12.7364 13.6867 12.4953 13.4455L3.85838 4.8086L3.62327 9.96585C3.61268 10.3173 3.46294 10.6586 3.20697 10.9145C2.951 11.1705 2.60976 11.3202 2.25829 11.3308Z" fill="black"/>
</svg>
