<svg width="49" height="50" viewBox="0 0 49 50" fill="none" xmlns="http://www.w3.org/2000/svg">
<g id="Group 27">
<path id="Vector" d="M24.5623 1.76838C19.9294 1.76838 15.4005 3.14219 11.5485 5.71608C7.69635 8.28997 4.69401 11.9483 2.92109 16.2286C1.14816 20.5088 0.684284 25.2186 1.58811 29.7625C2.49194 34.3063 4.72289 38.4801 7.99882 41.7561C11.2748 45.032 15.4486 47.2629 19.9924 48.1668C24.5363 49.0706 29.2461 48.6067 33.5263 46.8338C37.8065 45.0609 41.4649 42.0585 44.0388 38.2064C46.6127 34.3543 47.9865 29.8255 47.9865 25.1926C47.9865 18.9801 45.5186 13.0221 41.1257 8.62918C36.7328 4.23629 30.7748 1.76838 24.5623 1.76838Z" fill="white" stroke="#00A651" stroke-width="1.84848"/>
<path id="Vector_2" d="M24.5623 2.69263C20.1122 2.69263 15.762 4.01223 12.0619 6.48456C8.36183 8.95689 5.47795 12.4709 3.77498 16.5822C2.072 20.6936 1.62643 25.2176 2.4946 29.5822C3.36276 33.9467 5.50568 37.9558 8.65236 41.1025C11.799 44.2492 15.8082 46.3921 20.1727 47.2603C24.5373 48.1285 29.0613 47.6829 33.1726 45.9799C37.284 44.2769 40.798 41.3931 43.2703 37.693C45.7427 33.9928 47.0623 29.6427 47.0623 25.1926C47.0623 19.2253 44.6917 13.5023 40.4722 9.28272C36.2526 5.06316 30.5296 2.69263 24.5623 2.69263ZM36.5307 26.631L17.2449 36.2739C16.9999 36.3963 16.7275 36.4541 16.4538 36.4417C16.1801 36.4293 15.9142 36.3472 15.6811 36.203C15.4481 36.0589 15.2558 35.8576 15.1225 35.6183C14.9892 35.3789 14.9193 35.1095 14.9194 34.8355V15.5498C14.9196 15.2759 14.9897 15.0067 15.1231 14.7675C15.2565 14.5284 15.4489 14.3273 15.6818 14.1834C15.9148 14.0394 16.1807 13.9574 16.4542 13.9451C16.7278 13.9328 17 13.9906 17.2449 14.113L36.5307 23.7558C36.7972 23.8895 37.0214 24.0946 37.1781 24.3484C37.3347 24.6021 37.4177 24.8944 37.4177 25.1926C37.4177 25.4908 37.3347 25.7832 37.1781 26.0369C37.0214 26.2906 36.7972 26.4958 36.5307 26.6294V26.631Z" fill="#ED1C24"/>
</g>
</svg>
